<?xml version="1.0" encoding="UTF-8"?>
<svg xmlns="http://www.w3.org/2000/svg" xmlns:xlink="http://www.w3.org/1999/xlink" viewBox="0 0 128 128" width="128px" height="128px">
<g id="surface9850524">
<path style=" stroke:none;fill-rule:nonzero;fill:rgb(0%,38.82353%,64.705884%);fill-opacity:1;" d="M 52.351562 14.402344 C 42.625 14.402344 32.898438 18.101562 25.5 25.5 C 10.699219 40.300781 10.699219 64.398438 25.5 79.199219 C 32.898438 86.597656 42.601562 90.300781 52.402344 90.300781 C 62.199219 90.300781 71.902344 86.597656 79.300781 79.199219 C 94 64.398438 94 40.300781 79.199219 25.5 C 71.800781 18.101562 62.074219 14.402344 52.351562 14.402344 Z M 52.300781 20.300781 C 60.5 20.300781 68.699219 23.398438 74.902344 29.699219 C 87.402344 42.199219 87.398438 62.5 75 75 C 62.5 87.5 42.199219 87.5 29.699219 75 C 17.199219 62.5 17.199219 42.199219 29.699219 29.699219 C 35.898438 23.5 44.101562 20.300781 52.300781 20.300781 Z M 52.300781 26.300781 C 45.402344 26.300781 38.898438 29 34 34 C 29.300781 38.699219 26.699219 44.800781 26.402344 51.402344 C 26.300781 53.101562 27.601562 54.398438 29.300781 54.5 L 29.402344 54.5 C 31 54.5 32.300781 53.199219 32.402344 51.601562 C 32.601562 46.5 34.699219 41.800781 38.199219 38.199219 C 42 34.398438 47 32.300781 52.300781 32.300781 C 54 32.300781 55.300781 31 55.300781 29.300781 C 55.300781 27.601562 54 26.300781 52.300781 26.300781 Z M 35 64 C 33.34375 64 32 65.34375 32 67 C 32 68.65625 33.34375 70 35 70 C 36.65625 70 38 68.65625 38 67 C 38 65.34375 36.65625 64 35 64 Z M 83.363281 80.5 C 82.601562 80.5 81.851562 80.800781 81.300781 81.402344 C 80.101562 82.601562 80.101562 84.5 81.300781 85.601562 L 83.800781 88.101562 C 83.199219 89.300781 82.902344 90.601562 82.902344 92 C 82.902344 94.398438 83.800781 96.699219 85.5 98.402344 L 98.300781 111 C 100.101562 112.800781 102.398438 113.699219 104.699219 113.699219 C 107 113.699219 109.300781 112.800781 111.097656 111.101562 C 114.601562 107.601562 114.601562 101.902344 111.097656 98.402344 L 98.300781 85.601562 C 96.601562 83.898438 94.300781 83 91.902344 83 C 90.5 83 89.199219 83.300781 88 83.902344 L 85.5 81.402344 C 84.898438 80.800781 84.125 80.5 83.363281 80.5 Z M 91.902344 88.902344 C 92.699219 88.902344 93.5 89.199219 94 89.800781 L 106.699219 102.5 C 107.898438 103.699219 107.898438 105.597656 106.699219 106.699219 C 105.5 107.898438 103.601562 107.898438 102.5 106.699219 L 89.800781 94.097656 C 89.199219 93.5 88.902344 92.699219 88.902344 91.902344 C 88.902344 91.101562 89.199219 90.300781 89.800781 89.800781 C 90.402344 89.199219 91.101562 88.902344 91.902344 88.902344 Z M 91.902344 88.902344 "/>
</g>
</svg>
